<svg width="211" height="129" viewBox="0 0 211 129" fill="none" xmlns="http://www.w3.org/2000/svg">
<g clip-path="url(#clip0_84_7192)">
<path fill-rule="evenodd" clip-rule="evenodd" d="M96.7836 188.593C97.0367 188.386 97.3544 188.267 97.662 188.286C96.4445 187.459 95.4864 186.283 95.0708 184.844C94.7595 183.779 94.7431 182.607 95.083 181.524C95.4018 180.505 96.0283 179.608 96.888 178.951C97.5546 178.443 98.339 178.1 99.1559 177.973C99.0269 177.698 98.9147 177.418 98.8224 177.129C98.4163 175.883 98.3282 174.523 98.604 173.222C98.8904 171.854 99.5934 170.52 100.69 169.597C101.269 169.113 101.95 168.787 102.689 168.639C103.447 168.485 104.237 168.525 104.987 168.662C106.694 168.98 108.204 169.849 109.827 170.402C109.964 170.45 110.1 170.491 110.237 170.532C110.23 170.468 112.884 166.224 114.075 164.232C115.269 162.236 116.456 160.238 117.639 158.237C118.071 157.508 133.33 129.837 133.759 129.108C137.161 130.237 139.669 129.2 143.084 130.29L124.192 170.267L120.916 177.474C119.857 179.802 118.831 182.146 117.717 184.449C115.818 188.368 113.342 192.319 109.349 194.451C107.607 195.38 105.672 195.879 103.712 195.737C101.924 195.608 98.3322 193.747 98.1684 193.573C98.1574 193.568 97.6224 193.263 97.4228 193.045C97.0436 192.635 94.5556 190.329 96.7863 188.585L96.7836 188.593Z" fill="#050506"/>
<path fill-rule="evenodd" clip-rule="evenodd" d="M127.103 175.886C128.192 173.204 129.389 170.556 130.602 167.92C131.823 165.269 133.063 162.626 134.237 159.957C135.052 158.101 153.236 114.511 153.961 112.626C155.784 113.105 174.453 99.3319 176.526 99.6693C176.493 99.8586 147.12 161.877 146.72 164.173C146.518 165.327 146.316 166.481 146.115 167.634C145.926 168.707 145.819 172.434 146.157 173.177C146.577 173.946 147.273 174.64 148.006 175.267C148.271 175.432 151.067 177.715 151.731 178.817C152.496 180.085 152.513 181.574 151.765 182.725C151.085 183.768 149.818 184.494 148.346 184.715C147.664 184.819 146.944 184.8 146.246 184.618C146.002 184.552 145.756 184.467 145.529 184.359C146.275 185.344 146.828 186.412 147.157 187.509C147.618 189.035 147.695 190.698 147.11 192.123C146.818 192.836 146.318 193.499 145.573 193.94C144.887 194.346 144.011 194.573 143.105 194.503C141.113 194.347 139.83 192.751 139.034 191.415C138.209 190.035 137.742 188.544 137.653 187.071C136.645 188.412 135.556 189.75 133.962 190.673C132.373 191.59 130.162 192.042 128.116 191.423C126.182 190.842 124.872 189.356 124.358 187.816C123.954 186.609 124.077 185.403 124.477 184.276C124.368 184.3 126.014 178.575 127.107 175.889L127.103 175.886Z" fill="#050506"/>
<path fill-rule="evenodd" clip-rule="evenodd" d="M5.35076 193.839C5.51811 193.112 5.94349 192.472 6.57486 192.052C6.98916 191.774 7.48426 191.609 7.97515 191.605C7.02953 190.655 6.37591 189.416 6.16591 188.083C6.00382 187.047 6.10417 185.838 6.93759 185.061C7.62602 184.422 8.62088 184.238 9.5154 184.356C10.5715 184.498 11.4756 185.079 12.3053 185.71C12.3401 185.678 12.3275 185.69 12.3622 185.658C11.8524 184.84 11.5152 183.919 11.4256 182.949C11.3079 181.638 11.7193 180.325 12.6043 179.31C13.0252 178.827 13.551 178.423 14.1368 178.165C14.7889 177.878 15.4887 177.786 16.1888 177.864C17.0115 177.957 17.7823 178.251 18.5173 178.601C19.2232 178.937 19.9036 179.328 20.5475 179.768C21.9129 180.695 23.1164 181.831 24.125 183.124C24.4798 182.571 64.3358 123.594 62.8661 117.289C62.0727 113.887 60.0389 112.148 57.1523 110.527C54.2694 108.91 51.5206 107.149 48.9541 105.075C46.6482 103.214 44.1743 101.132 43.2674 98.2079C41.3027 91.8669 47.7693 88.338 53.3476 88.4451C57.1892 88.5203 60.5422 90.201 62.8114 92.8813C63.1881 89.15 64.6198 85.6496 68.5193 84.0375C73.8326 81.8407 85.7762 85.6625 80.1482 97.9685C76.4972 105.955 66.4342 106.314 68.2682 112.495C69.3661 116.199 72.1737 118.464 79.8502 117.61C110.673 114.182 119.638 81.2466 128.977 39.2371C129.127 38.5708 127.29 21.6536 127.029 20.259C126.793 19.0077 126.605 17.7264 126.619 16.4469C126.63 15.246 126.833 14.0617 127.277 13.0001C128.097 11.046 129.602 9.66596 131.223 8.84703C132.989 7.95187 134.988 7.6712 136.895 8.01546C138.82 8.36428 140.668 9.37709 142.096 11.0737C143.477 12.7216 144.439 14.9406 144.633 17.291C144.814 19.4897 144.239 21.7025 143.124 23.3705C142.021 25.0199 140.373 26.0501 138.604 25.9404C136.887 25.8344 135.171 24.7672 134.149 23.0057C134.069 22.8693 133.996 22.7286 133.929 22.5871C134.17 24.3557 136.837 30.3897 140.803 35.9727C155.152 32.8824 188.858 23.3853 188.84 23.3159C189.152 23.4229 188.378 18.4983 188.073 17.1808C187.633 15.291 187.603 13.2911 188.219 11.4071C188.497 10.5506 188.908 9.73184 189.46 9.01102C190.063 8.22229 190.834 7.5726 191.721 7.11259C193.646 6.11548 195.907 6.00252 197.957 6.48548C199.939 6.95312 201.742 7.96148 203.273 9.25641C204.096 9.95288 204.844 10.727 205.527 11.5535C206.191 12.3553 206.814 13.1964 207.365 14.0772C208.31 15.5896 209.161 17.5057 208.592 19.3362C208.312 20.2406 207.691 20.9975 206.898 21.5307C206.066 22.0894 205.086 22.3773 204.099 22.441C203.013 22.5106 201.931 22.3206 200.9 22.022C199.941 21.7416 199.013 21.3685 198.129 20.9149C196.39 20.0212 194.822 18.8092 193.534 17.354C193.467 17.2773 193.4 17.2006 193.337 17.1234C193.247 16.484 193.01 30.2394 191.526 43.8737C184.7 85.9598 170.258 121.495 153.161 128.037C137.053 134.203 114.412 143.486 61.7206 152.177C60.2795 155.553 44.8727 181.219 31.1882 200.731C26.9253 206.809 19.2229 204.927 18.0662 204.48C17.9616 204.439 17.8536 204.398 17.7487 204.354C14.9062 203.733 12.2081 202.531 9.87209 200.847C9.25176 200.401 8.65561 199.922 8.08743 199.411C7.53431 198.912 6.99209 198.384 6.52731 197.803C5.63853 196.699 5.013 195.296 5.35041 193.836L5.35076 193.839Z" fill="#050506"/>
<path fill-rule="evenodd" clip-rule="evenodd" d="M179.648 31.1973L139.991 40.5585C136.354 41.3306 134.693 45.5308 134.372 47.2897C129.114 76.1868 114.417 113.772 114.417 113.772C113.321 117.268 116.28 120.592 119.917 119.947L161.717 113.732C163.685 113.384 165.78 109.993 165.78 109.993C165.78 109.993 183.711 80.3794 187.196 37.6347C187.494 33.9935 183.256 30.3435 179.648 31.1939L179.648 31.1973Z" fill="#FF5252"/>
<path fill-rule="evenodd" clip-rule="evenodd" d="M155.048 80.1298L155.048 78.6599L151.748 78.6899L151.818 87.6296L155.108 87.5996L155.078 83.3597C155.078 82.0998 155.638 82.0498 159.028 82.0198L158.998 78.6299L158.378 78.6299C156.958 78.6499 155.908 79.1899 155.058 80.1298" fill="white"/>
<path fill-rule="evenodd" clip-rule="evenodd" d="M143.998 83.2196C143.948 77.0598 148.878 72.01 154.998 71.96C161.108 71.91 166.128 76.8798 166.178 83.0496C166.228 89.2195 161.298 94.2593 155.178 94.3093C149.058 94.3593 144.048 89.3895 143.998 83.2196ZM146.218 83.1997C146.258 88.1295 150.268 92.1094 155.158 92.0694C160.048 92.0294 163.998 87.9895 163.958 83.0597C163.918 78.1298 159.908 74.1499 155.018 74.1899C150.128 74.2299 146.178 78.2698 146.218 83.1997Z" fill="white"/>
<path d="M171.97 50.8368C171.956 50.731 172.001 50.6313 172.093 50.5558C172.204 50.4678 172.356 50.4353 172.47 50.4781C172.56 50.5105 172.623 50.5867 172.636 50.6858C172.863 52.1704 173.862 53.3761 175.183 53.7581C176.496 54.1377 177.886 53.7073 178.638 52.6915C179.063 52.1168 179.261 51.4027 179.182 50.7369C179.182 50.7369 179.181 50.7336 179.181 50.7303C179.102 50.6359 179.103 50.5048 179.19 50.3862C179.293 50.2488 179.494 50.163 179.656 50.2637C180.475 50.7592 181.37 51.0635 182.324 51.1688C182.746 51.2133 183.297 51.2483 183.803 51.0871C184.22 50.9573 184.531 50.6425 184.682 50.2032C184.813 49.8135 184.815 49.3997 184.79 49.0229C184.634 49.1165 184.469 49.1137 184.362 49.0096C184.304 48.9562 184.28 48.882 184.288 48.7969C184.299 48.7047 184.349 48.6178 184.426 48.5677L184.886 48.2577C184.986 48.1914 185.154 48.1501 185.273 48.2024C185.356 48.239 185.404 48.3102 185.414 48.4031C185.473 48.9674 185.526 49.5523 185.372 50.1231C185.21 50.7184 184.87 51.1816 184.379 51.4618C184.346 51.4794 184.311 51.5007 184.275 51.5187C183.836 51.7385 183.285 51.8314 182.593 51.7974C182.029 51.7708 181.483 51.6815 180.965 51.5348C180.586 51.4278 180.216 51.286 179.865 51.1216C179.795 52.4317 178.892 53.6817 177.621 54.198C176.095 54.8202 174.309 54.4565 173.175 53.291C172.543 52.6409 172.116 51.7701 171.974 50.8397L171.97 50.8368Z" fill="#050506"/>
<path d="M179.003 47.1037C178.66 46.4221 178.945 45.8003 179.333 45.4413C179.592 45.2008 179.912 45.0206 180.227 44.8581C180.546 44.6918 180.881 44.554 181.225 44.4355C181.885 44.2019 183.388 43.78 183.477 43.8095C184.658 44.1943 185.835 45.3151 186.048 46.6124C186.262 47.9165 185.555 48.9084 184.515 49.2172C183.364 49.5572 182 49.1684 180.731 48.5019C180.124 48.1839 179.351 47.795 179.007 47.1066L179.003 47.1037Z" fill="#050506"/>
<path d="M165.802 48.5289C165.488 47.8289 165.181 47.1006 165.098 46.3269C165.021 45.6138 165.145 44.8752 165.556 44.2571C165.754 43.9626 166.014 43.6978 166.328 43.5182C166.367 43.4961 166.41 43.4737 166.453 43.4512C166.486 43.4094 166.531 43.3764 166.575 43.3573C168.052 42.7164 169.578 43.4436 170.76 44.2689C171.096 44.5025 171.445 44.7344 171.75 45.006C172.014 45.2454 172.238 45.5442 172.286 45.9064C172.333 46.2619 172.202 46.6058 171.918 46.8396C171.625 47.0814 171.243 47.1741 170.871 47.1906C170.182 47.2234 169.367 46.9074 168.826 47.5044C168.549 47.8089 168.403 48.2025 168.197 48.5526C168.002 48.8841 167.748 49.1721 167.395 49.343C167.079 49.499 166.707 49.5155 166.405 49.3357C166.106 49.1587 165.94 48.8285 165.805 48.5218L165.802 48.5289Z" fill="white"/>
<path d="M173.731 44.8802C173.469 44.0842 173.379 43.205 173.465 42.3647C173.495 42.0778 173.558 41.7865 173.662 41.5173C173.647 41.4681 174.155 40.4515 175.335 40.336C176.014 40.2703 176.695 40.3272 177.297 40.6195C177.928 40.9285 178.454 41.3941 178.91 41.9199C179.369 42.4452 179.826 43.1141 179.587 43.8543C179.485 44.1743 179.253 44.446 178.942 44.5845C178.677 44.7 178.382 44.6931 178.104 44.6533C177.837 44.6155 177.562 44.5411 177.291 44.5686C177.007 44.5945 176.8 44.7709 176.613 44.9788C176.212 45.4255 175.867 46.046 175.211 46.1259C174.427 46.2185 173.944 45.5357 173.729 44.8874L173.731 44.8802Z" fill="white"/>
<path d="M177.128 39.9266C177.541 39.8023 177.97 39.971 178.274 40.2415C178.628 40.5605 178.878 40.982 179.026 41.4403C179.042 41.4555 179.054 41.4745 179.063 41.4906C179.243 41.8865 179.347 42.3161 179.347 42.7588C179.347 43.1639 179.287 43.6314 179.055 43.9835C178.816 44.3466 178.41 44.4701 178.003 44.3432C177.58 44.2113 177.308 43.8339 177.109 43.4643C176.884 43.0432 176.711 42.5879 176.6 42.1215C176.501 41.6982 176.418 41.235 176.464 40.7967C176.506 40.3966 176.721 40.0467 177.131 39.9228L177.128 39.9266Z" fill="#050506"/>
<path d="M169.165 43.0765C169.568 42.933 170.017 42.9686 170.409 43.1003C170.896 43.2647 171.298 43.6214 171.532 44.0712C171.549 44.1033 171.567 44.1388 171.584 44.1742C171.628 44.1927 171.667 44.2289 171.69 44.2876C171.872 44.7063 171.978 45.1554 171.994 45.6158C172.006 46.0356 171.945 46.4954 171.682 46.8472C171.456 47.1466 171.086 47.3407 170.711 47.3061C170.226 47.2614 169.957 46.8125 169.708 46.457C169.415 46.042 169.141 45.6143 168.891 45.1734C168.687 44.8156 168.434 44.4229 168.438 43.9908C168.446 43.5548 168.759 43.2205 169.162 43.0804L169.165 43.0765Z" fill="#050506"/>
<path fill-rule="evenodd" clip-rule="evenodd" d="M45.786 185.589C45.786 185.589 45.8049 185.604 45.8125 185.61C49.3866 180.663 52.7576 175.571 55.9037 170.357C59.2463 164.82 62.3412 159.143 65.1763 153.344C65.5732 152.533 81.4413 121.955 81.4413 121.955C82.5922 122.717 83.7373 123.491 84.8639 124.287C86.8658 125.706 88.6935 127.123 90.5123 128.86C91.3426 129.652 91.9925 130.317 92.5648 131.005C92.2548 131.679 81.2491 153.833 80.9352 154.504C79.6365 157.273 78.3052 160.029 76.9374 162.77C75.5548 165.536 74.1393 168.286 72.6872 171.02C71.2407 173.74 69.7608 176.439 68.2444 179.123C66.8137 181.659 65.3497 184.175 63.856 186.675C66.1651 187.729 67.6356 190.274 67.4269 192.81C67.3222 194.091 66.7473 195.336 65.7114 196.163C64.666 196.998 63.2708 197.278 62.0334 196.79C61.1512 196.439 60.4809 195.746 60.1366 194.906C60.3183 196.23 60.4045 197.572 60.1793 198.9C59.906 200.504 59.1187 202.054 57.7865 203.08C57.1671 203.556 56.4437 203.901 55.6722 204.016C54.8423 204.138 54.0157 203.989 53.2724 203.635C51.7344 202.901 50.689 201.371 50.2755 199.758C49.8751 198.204 49.9614 196.576 50.1522 194.982C49.8853 195.533 49.7033 196.132 49.4828 196.695C49.2009 197.406 48.8132 198.102 48.2065 198.601C47.6126 199.087 46.8464 199.287 46.1227 199.023C45.3269 198.733 44.7588 198.051 44.3061 197.375C43.4659 196.114 43.0315 194.602 42.9997 193.078C42.9864 192.408 43.9286 188.511 45.7846 185.575C45.7846 185.575 45.7853 185.582 45.7822 185.586L45.786 185.589Z" fill="#050506"/>
<path d="M94.7387 60.6062C94.5307 58.7565 94.0457 56.5449 94.9466 54.7634C95.6914 53.2893 97.3743 52.5864 98.9499 52.9686C101.217 53.5198 102.082 55.6012 102.665 57.6189C102.676 57.6552 102.676 57.6928 102.683 57.7262C103.789 57.093 104.998 56.7171 106.33 56.9933C108.18 57.3749 109.441 58.9199 108.796 60.8196C108.086 62.9054 105.857 64.8552 104.241 66.2721C102.217 68.0454 99.9801 69.5135 97.5605 70.6899C97.1566 70.8849 96.6912 70.8207 96.3518 70.6309C96.0436 70.5399 95.7794 70.3372 95.7435 69.9891L95.6634 69.2119C95.6565 69.1443 95.6598 69.0754 95.6741 69.012C95.3612 66.2102 95.0485 63.4118 94.7356 60.61L94.7387 60.6062Z" fill="#050506"/>
<path d="M55.2936 63.9827C55.7314 63.0536 56.8253 63.2152 57.2179 63.2268C57.4649 63.2364 57.6971 63.2718 57.9185 63.3359C58.0826 62.8441 58.3374 62.3921 58.7843 62.0556C59.3148 61.6573 60.2548 61.3333 60.8324 61.7617C61.4699 62.2337 61.6499 63.511 61.6804 64.2442C61.7241 65.3068 61.21 67.5799 61.1615 67.6475C61.1663 67.6605 57.9401 67.278 56.9023 66.7203C55.5233 65.9772 54.5712 65.511 55.2899 63.9798L55.2936 63.9827Z" fill="#050506"/>
<path d="M77.7492 35.3884C78.0949 33.7684 79.5701 32.6567 81.2406 32.7689C82.7367 32.8692 83.7252 33.7571 84.4603 34.8751C84.9451 34.4042 85.5149 34.018 86.2039 33.7805C87.4848 33.3383 89.0747 33.5085 89.9035 34.6282C90.8491 35.9071 90.3723 37.6667 89.4409 38.8458C88.3075 40.2826 85.1758 43.3341 84.7681 43.5462L84.4067 43.7353C84.4067 43.7353 84.3838 43.7485 84.3739 43.7531L83.9926 43.9516C83.2071 44.3617 80.8303 41.3265 80.1343 40.555C78.8445 39.1287 77.3013 37.4957 77.752 35.3813L77.7492 35.3884Z" fill="#050506"/>
</g>
<defs>
<clipPath id="clip0_84_7192">
<rect width="211" height="129" fill="white"/>
</clipPath>
</defs>
</svg>
